# xmcd
#
# Track frame offsets:
#	150
#	18303
#	31433
#	44863
#	60101
#	72353
#	86073
#	102778
#	116192
#	126487
#	137609
#	148423
#	159754
#	172759
#	189212
#
# Disc length: 2739
#
# Revision: 3
# Processed by: cddbd v1.5.1PL0 Copyright (c) Steve Scherf et al.
# Submitted via: Axialis_AX_CDPlayer 2.6
# Normalized: r2:DSETVAR1
#
DISCID=ce0ab10f
DTITLE=Various Artist - Classic Country Golden 70's disc 1
DYEAR=1900
DGENRE=
TTITLE0=Hank Williams Jr. - Family Tradition
TTITLE1=The Oak Ridge Boys - Y'all Come Back Saloon
TTITLE2=Waylon Jennings - Amanda
TTITLE3=Jessi Colter - I'm Not Lisa
TTITLE4=Conway Twitty - Linda On My Mind
TTITLE5=Barbara Fairchild - Teddy Bear Song
TTITLE6=Ray Price - I Won't Mention It Again
TTITLE7=Crystal Gayle - Why Have You Left the One You Left Me For
TTITLE8=Billy "Crash" Craddock - Rub It In
TTITLE9=Don Williams - It Must Be Love
TTITLE10=George Jones and Tammy Wynette - Near You
TTITLE11=Loretta Lynn - Love Is the Foundation
TTITLE12=Charley Pride - She's  Too Good to Be True
TTITLE13=Cal Smith - Country Bumpkin
TTITLE14=The Charlie Daniels Band - The Devil Went Down to Georgia
EXTD=
EXTT0=
EXTT1=
EXTT2=
EXTT3=
EXTT4=
EXTT5=
EXTT6=
EXTT7=
EXTT8=
EXTT9=
EXTT10=
EXTT11=
EXTT12=
EXTT13=
EXTT14=
PLAYORDER=
